<?xml version="1.0" encoding="utf-8"?>
<!-- Generator: Adobe Illustrator 23.0.1, SVG Export Plug-In . SVG Version: 6.00 Build 0)  -->
<svg version="1.1" id="Layer_1" xmlns="http://www.w3.org/2000/svg" xmlns:xlink="http://www.w3.org/1999/xlink" x="0px" y="0px"
	 viewBox="0 0 410 404" style="enable-background:new 0 0 410 404;" xml:space="preserve">
<style type="text/css">
	.st0{fill:#2EFF50;}
	.st1{fill:none;stroke:#000000;stroke-width:4;stroke-miterlimit:10;}
</style>
<ellipse class="st0" cx="200.9" cy="202" rx="168.1" ry="165"/>
<g id="Moto">
	<g>
		<g>
			<ellipse cx="265.5" cy="119.6" rx="20.2" ry="12.7"/>
		</g>
	</g>
	<g>
		<g>
			<ellipse cx="138.1" cy="119.6" rx="20.2" ry="12.7"/>
		</g>
	</g>
	<g>
		<g>
			<g>
				<ellipse class="st1" cx="200.6" cy="176.5" rx="29.6" ry="23"/>
			</g>
		</g>
	</g>
	<g>
		<g>
			<path d="M200.6,207.5c-11.6,0-21.1,7.4-21.1,16.6v83.3c0,9.1,9.6,16.6,21.1,16.6s21.1-7.4,21.1-16.6v-83.3
				C221.7,214.9,212.2,207.5,200.6,207.5z"/>
		</g>
	</g>
	<g>
		<g>
			<path d="M164.6,201.5c-5.1,0-9.3,3.1-9.3,7.2v69.4c0,3.8,4.2,7.2,9.3,7.2s9.3-3.1,9.3-7.2v-69.4
				C173.9,204.6,169.7,201.5,164.6,201.5z"/>
		</g>
	</g>
	<g>
		<g>
			<g>
				<path d="M279.9,199.6"/>
			</g>
		</g>
	</g>
	<g>
		<g>
			<path d="M248.2,204.4c0.2,16.6,0.4,33.1,0.2,49.7c13.8-1,24.7-11.5,24.7-24.7C273.3,216.1,262.2,205.1,248.2,204.4z"/>
		</g>
	</g>
	<g>
		<g>
			<path d="M126.6,229.3c0,13.2,10.2,24,22.9,24.7c0-16.6,0-33.1,0.2-49.7C136.8,205.1,126.6,216.1,126.6,229.3z"/>
		</g>
	</g>
	<g>
		<g>
			<path d="M284.4,138.4c-1.6-2.9-6-4.6-9.8-3.4l-39.3,12.2c-3.8,1.2-5.8,4.6-4.2,7.7s6,4.6,9.8,3.4l39.3-12.2
				C283.9,144.8,285.9,141.2,284.4,138.4z"/>
		</g>
	</g>
	<g>
		<g>
			<path d="M161.9,147l-39.6-11.8c-3.8-1.2-8.2,0.2-9.8,3.4l0,0c-1.6,3.1,0.4,6.5,4.2,7.7l39.6,11.8c3.8,1.2,8.2-0.2,9.8-3.4
				C167.7,151.6,165.7,148.2,161.9,147z"/>
		</g>
	</g>
	<g>
		<g>
			<path d="M234.4,203.4c-5.1,0-9.3,3.1-9.3,7.2V280c0,3.8,4.2,7.2,9.3,7.2s9.3-3.1,9.3-7.2v-69.4
				C243.5,206.5,239.5,203.4,234.4,203.4z"/>
		</g>
	</g>
</g>
</svg>
